<?xml version="1.0"?>
<svg viewBox="0 0 220 200" xmlns="http://www.w3.org/2000/svg"><path d="M50,60 Q46,18 84,48 Q74,64 50,60 Z" fill="#2b4f96"/><path d="M170,60 Q174,18 136,48 Q146,64 170,60 Z" fill="#2b4f96"/><path d="M58,54 Q57,30 78,49 Q69,58 58,54 Z" fill="#ffc7d3"/><path d="M162,54 Q163,30 142,49 Q151,58 162,54 Z" fill="#ffc7d3"/><ellipse cx="110" cy="114" rx="86" ry="72" fill="#fbf1de" stroke="#2b4f96" stroke-width="3.5"/><path d="M30,94 Q110,10 190,94" fill="none" stroke="#2b4f96" stroke-width="8" stroke-linecap="round"/><rect x="15" y="94" width="26" height="46" rx="13" fill="#2b4f96"/><rect x="21" y="104" width="14" height="26" rx="7" fill="#ffb3c1"/><rect x="179" y="94" width="26" height="46" rx="13" fill="#2b4f96"/><rect x="185" y="104" width="14" height="26" rx="7" fill="#ffb3c1"/><ellipse cx="56" cy="138" rx="13" ry="7.5" fill="#ff9db0" opacity="0.5"/><ellipse cx="164" cy="138" rx="13" ry="7.5" fill="#ff9db0" opacity="0.5"/><g class="rec-eye"><circle cx="82" cy="112" r="24" fill="#23252e" stroke="#14151b" stroke-width="1.5"/><circle cx="82" cy="112" r="18" fill="none" stroke="#40434f" stroke-width="1"/><circle cx="82" cy="112" r="13" fill="none" stroke="#3a3d47" stroke-width="1"/><rect x="81" y="90" width="2" height="8" rx="1" fill="#7d818f"/><circle cx="82" cy="112" r="7" fill="#B8763E"/><circle cx="82" cy="112" r="2" fill="#fbf1de"/></g><circle cx="74" cy="103" r="6.5" fill="#ffffff"/><circle cx="89" cy="118" r="2.8" fill="#ffffff" opacity="0.9"/><g class="rec-eye"><circle cx="138" cy="112" r="24" fill="#23252e" stroke="#14151b" stroke-width="1.5"/><circle cx="138" cy="112" r="18" fill="none" stroke="#40434f" stroke-width="1"/><circle cx="138" cy="112" r="13" fill="none" stroke="#3a3d47" stroke-width="1"/><rect x="137" y="90" width="2" height="8" rx="1" fill="#7d818f"/><circle cx="138" cy="112" r="7" fill="#B8763E"/><circle cx="138" cy="112" r="2" fill="#fbf1de"/></g><circle cx="130" cy="103" r="6.5" fill="#ffffff"/><circle cx="145" cy="118" r="2.8" fill="#ffffff" opacity="0.9"/><path d="M105,134 L115,134 L110,140 Z" fill="#f2889e" stroke="#d76c86" stroke-width="1" stroke-linejoin="round"/><path d="M110,140 L110,144" stroke="#2b4f96" stroke-width="2.5" stroke-linecap="round"/><path d="M110,144 Q103,151 97,145" fill="none" stroke="#2b4f96" stroke-width="2.5" stroke-linecap="round"/><path d="M110,144 Q117,151 123,145" fill="none" stroke="#2b4f96" stroke-width="2.5" stroke-linecap="round"/><g stroke="#2b4f96" stroke-width="2" stroke-linecap="round" opacity="0.4"><path d="M90,136 q-18,-2 -30,-6"/><path d="M90,143 q-18,2 -30,5"/><path d="M130,136 q18,-2 30,-6"/><path d="M130,143 q18,2 30,5"/></g><g fill="#FFD98A"><path d="M40,44 l1.8,4.6 4.6,1.8 -4.6,1.8 -1.8,4.6 -1.8,-4.6 -4.6,-1.8 4.6,-1.8 Z"/><path d="M182,48 l1.4,3.6 3.6,1.4 -3.6,1.4 -1.4,3.6 -1.4,-3.6 -3.6,-1.4 3.6,-1.4 Z"/></g></svg>